<svg viewBox="0 0 22 22" xmlns="http://www.w3.org/2000/svg"><path d="m12.338532 1033.3623-2.8326777.2648v10.9399l2.8015387-.3823v-4.676l3.735415 5.176 2.926063-.8824-3.828788-4.97 3.859917-4.7054-2.988315-.647-3.704286 4.7054.03122-4.823zm-6.3812958 2.6761c-.031669 0-.069523.017-.093407.03l-1.0894896 1.0587c-.0464.046-.06524.1229-.031228.1765l1.2762647 1.9999c-.22912.3639-.3979586.7624-.5291917 1.176l-2.3657544.4708c-.06596.017-.1244304.054-.1244304.1181v1.4705c0 .062.060955.1314.1244304.1465l2.3034978.5294c.1226483.4795.3089159.9352.5603035 1.3526l-1.3385048 1.9119c-.037132.054-.017821.1314.031228.1765l1.0895061 1.0291c.0464.042.1301352.064.1867586.03l2.0856111-1.2056c.41008.2235.8399555.41 1.3073987.5292l.4980409 2.2057c.01429.064.05727.1179.124442.1179h1.5564029c.0656 0 .139939-.057.155625-.1179l.560303-2.2057c.481832-.1229.949588-.3248 1.369655-.5586l2.054466 1.294c.05654.034.138693.017.18677-.03l1.089485-1.0294c.04668-.046.06543-.1229.03122-.1763l-.747078-1.1761-.249027.088c-.03554.017-.07255 0-.09341-.03 0 0-.470824-.6738-1.089489-1.5294-.739591 1.3676-2.246808 2.2941-3.98442 2.2941-2.4687221 0-4.4824767-1.873-4.4824767-4.2055 0-1.7157 1.0908083-3.1915 2.6459092-3.8525v-1.0882c-.2830458.094-.5494623.1896-.8093519.3237-.0001931 0-.030455 0-.031228 0l-2.0855889-1.2942c-.02836-.017-.061672-.032-.093419-.029z" fill="#eff0f1" transform="translate(0 -1030.3622)"/></svg>