<?xml version="1.0" encoding="UTF-8" standalone="no"?>
<svg
   viewBox="0 0 16 15.9998"
   version="1.1"
   id="svg1"
   sodipodi:docname="silverlps-kickoff.svgz"
   inkscape:export-filename="silverlps-kickoff-5.svg"
   inkscape:export-xdpi="96"
   inkscape:export-ydpi="96"
   width="16"
   height="15.9998"
   xmlns:inkscape="http://www.inkscape.org/namespaces/inkscape"
   xmlns:sodipodi="http://sodipodi.sourceforge.net/DTD/sodipodi-0.dtd"
   xmlns="http://www.w3.org/2000/svg"
   xmlns:svg="http://www.w3.org/2000/svg">
  <defs
     id="defs1" />
  <sodipodi:namedview
     id="namedview1"
     pagecolor="#ffffff"
     bordercolor="#999999"
     borderopacity="1"
     inkscape:showpageshadow="2"
     inkscape:pageopacity="0"
     inkscape:pagecheckerboard="false"
     inkscape:deskcolor="#d1d1d1">
    <inkscape:page
       x="0"
       y="0"
       width="16"
       height="15.9998"
       id="page2"
       margin="0"
       bleed="0" />
  </sodipodi:namedview>
  <path
     d="m 9.204679,0.79999 -2.54941,0.23832 v 9.84591 l 2.5213849,-0.34407 v -4.2084 l 3.3618731,4.6584 2.633457,-0.79416 -3.445909,-4.473 L 15.2,1.48813 12.510516,0.90583 9.1766593,5.14069 9.2047573,0.79999 Z M 3.4615128,3.20848 c -0.028502,0 -0.062571,0.0153 -0.084066,0.027 l -0.980541,0.95283 c -0.04176,0.0414 -0.058716,0.11061 -0.028105,0.15885 l 1.148638,1.79991 C 3.3112308,6.47458 3.1592761,6.83323 3.0411663,7.20547 L 0.91198736,7.62919 C 0.85262336,7.64449 0.8,7.67779 0.8,7.73548 v 1.32345 c 0,0.0558 0.0548595,0.11826 0.11198736,0.13185 L 2.9851354,9.66724 c 0.1103834,0.43155 0.2780243,0.84168 0.5042731,1.21734 l -1.2046543,1.72071 c -0.033419,0.0486 -0.016039,0.11826 0.028105,0.15885 l 0.9805555,0.92619 c 0.04176,0.0378 0.1171217,0.0576 0.1680827,0.027 l 1.87705,-1.08504 c 0.369072,0.20115 0.75596,0.369 1.1766589,0.47628 l 0.4482368,1.98513 c 0.012861,0.0576 0.051543,0.10611 0.1119978,0.10611 h 1.4007626 c 0.05904,0 0.1259451,-0.0513 0.1400625,-0.10611 l 0.5042727,-1.98513 c 0.4336488,-0.11061 0.854629,-0.29232 1.2326893,-0.50274 l 1.84902,1.1646 c 0.05089,0.0306 0.124823,0.0153 0.168093,-0.027 l 0.980536,-0.92646 c 0.04201,-0.0414 0.05889,-0.11061 0.0281,-0.15867 l -0.67237,-1.05849 -0.224124,0.0792 c -0.03199,0.0153 -0.0653,0 -0.08407,-0.027 0,0 -0.423742,-0.60642 -0.980541,-1.37646 -0.665631,1.23084 -2.0221267,2.06469 -3.5859775,2.06469 -2.2218499,0 -4.0342291,-1.6857 -4.0342291,-3.78495 0,-1.54413 0.9817275,-2.87235 2.3813183,-3.46725 V 4.10866 C 5.9242425,4.19326 5.6844677,4.2793 5.450567,4.39999 c -1.738e-4,0 -0.02741,0 -0.028105,0 L 3.545431,3.23521 C 3.519907,3.21991 3.4899262,3.20641 3.4613539,3.20911 Z"
     fill="#eff0f1"
     id="path1"
     style="stroke-width:0.9" />
</svg>
